# xmcd
#
# Track frame offsets: 
#        150
#        18195
#        34717
#        54315
#        74244
#        92118
#        104630
#        122746
#        139461
#        157222
#        172696
#        190391
#        207042
#        222485
#        238148
#        254246
#        268407
#        283826
#        300916
#        316537
#        332225
#
# Disc length: 4627 seconds
#
# Revision: 0
# Processed by: cddbd v1.5.2PL0 Copyright (c) Steve Scherf et al.
# Submitted via: ExactAudioCopyFreeDBPlugin 1.0
#
DISCID=4a121115
DTITLE=DJ Satomi - Greatest Hits and Remixes
DYEAR=2014
DGENRE=Dance
TTITLE0=Castle In The Sky
TTITLE1=Waves
TTITLE2=Nuclear Sun
TTITLE3=Be A Man
TTITLE4=Dragostea Din Tei
TTITLE5=Castle In The Sky (Da Brozz Edit)
TTITLE6=Hung Up
TTITLE7=Waves (Stefano Carparelli Edit)
TTITLE8=Crazyravers - Wonder (DJ Satomi Edit)
TTITLE9=Little Chance
TTITLE10=Lost In Space
TTITLE11=The Fall Of Angels
TTITLE12=Castle In The Sky (Tanzamomo Edit)
TTITLE13=With You
TTITLE14=Alyssa - Superstar (DJ Satomi Happytrance Edit)
TTITLE15=Partyheadz - Stop Loving You (DJ Satomi Edit)
TTITLE16=Emax - Fly To Heaven (DJ Satomi Edit)
TTITLE17=Crazyravers - By My Side (DJ Satomi Edit)
TTITLE18=Supasonic - Tomorrow (DJ Satomi Edit)
TTITLE19=Kassandra - Wake Up (DJ Satomi Edit)
TTITLE20=Holly Dolly - Dolly Song (DJ Satomi and Pure Dust Edit)
EXTD=
EXTT0=
EXTT1=
EXTT2=
EXTT3=
EXTT4=
EXTT5=
EXTT6=
EXTT7=
EXTT8=
EXTT9=
EXTT10=
EXTT11=
EXTT12=
EXTT13=
EXTT14=
EXTT15=
EXTT16=
EXTT17=
EXTT18=
EXTT19=
EXTT20=
PLAYORDER=
